<?xml version="1.0" encoding="utf-8"?>
<!-- Generator: Adobe Illustrator 27.3.1, SVG Export Plug-In . SVG Version: 6.00 Build 0)  -->
<svg version="1.1" id="Layer_1" xmlns="http://www.w3.org/2000/svg" xmlns:xlink="http://www.w3.org/1999/xlink" x="0px" y="0px"
	 viewBox="0 0 748 748" style="enable-background:new 0 0 748 748;" xml:space="preserve">
<style type="text/css">
	.st0{fill:url(#Path_00000013165036069294330730000016472730207107242134_);}
	.st1{fill:url(#Path_00000000925832082794778430000003333076318941135786_);}
	.st2{fill:#BF6D00;}
</style>
<g id="Artboard-Copy">
	<g id="Artboard-1" transform="translate(38.550000, 34.180000)">
		<path id="Shape" d="M196.6,280.1h56.3c12.8,0,22.8,3.7,30,11s10.8,17,10.8,29c0,12.1-3.7,21.6-10.9,28.6
			c-7.2,6.9-17.2,10.3-30,10.3H226v38.7h-29.5V280.1z M248.7,334.8c10.3,0,15.5-5.1,15.6-15.1c0-9.4-5.2-14.2-15.6-14.2H226v29.3
			H248.7z"/>
		<path id="Shape_00000119106867848432868510000005086962641644657537_" d="M340.9,400c-13.6,0-24.6-4-33-11.9
			c-8.4-7.9-12.7-19.1-12.7-33.4c0-14.6,4.2-25.8,12.7-33.8c8.5-8,19.6-12,33.1-12c13.4,0,24.3,3.9,32.7,11.8s12.6,19.1,12.6,33.8
			c0,14.4-4.2,25.5-12.6,33.4s-19.4,11.8-32.8,11.8L340.9,400z M357.6,354.8c0-14.6-5.6-21.8-16.7-21.8s-16.7,7.2-16.7,21.8
			c0,14.2,5.6,21.3,16.7,21.3S357.6,369,357.6,354.8z"/>
		<path id="Path" d="M434.7,399.5c-11.9,0-21.4-2.2-28.5-6.4c-9-5.4-13.5-13.7-13.5-24.7h24.7c0.1,4,1.2,6.9,3.5,8.8
			c2.6,2.2,6.2,3.2,10.9,3c2.4,0,4.7-0.7,6.7-2c1.8-1.1,2.8-3.1,2.8-5.2c0.1-2.3-1.1-4.5-3.2-5.5c-2.1-1.1-6.4-2.4-13-4
			c-3.9-0.9-6.8-1.7-8.8-2.3c-2.6-0.9-5.2-1.9-7.8-3.1c-2.7-1.1-5.1-2.7-7.2-4.7c-1.8-2-3.3-4.3-4.3-6.7c-1.4-3.1-2.1-6.5-2-9.9
			c0-9.4,3.3-16.4,10-21c6.7-4.6,15.1-6.8,25.2-6.8c9,0,16.7,1.8,23,5.2c9.4,5.3,14.1,13.5,14.1,24.4h-23.8c0-3.7-1.1-6.4-3.2-8.1
			c-2.1-1.8-5.1-2.5-8.7-2.2c-2.5-0.1-5,0.5-7.2,1.8c-1.8,0.9-2.9,2.8-2.9,4.8c0,0.7,0.2,1.4,0.5,2c0.4,0.6,0.9,1.2,1.5,1.6
			c0.7,0.5,1.4,0.9,2.2,1.2c1,0.4,2,0.8,3.1,1.1c1.3,0.4,2.6,0.7,3.7,1c1.2,0.3,2.8,0.6,4.8,1.1c2.1,0.5,3.8,0.9,5.2,1.3
			c3.5,0.9,6.9,2,10.2,3.3c2.9,1.2,5.7,2.7,8.2,4.6c2.7,2,4.9,4.7,6.2,7.7c1.5,3.5,2.2,7.2,2.1,11c0,9.4-3.2,16.6-9.5,21.5
			c-6.3,4.9-14.6,7.3-24.8,7.3L434.7,399.5z"/>
		<path id="Path_00000170253811992765598150000015057887988708572299_" d="M504.5,397.9c-6.2,0-11-2-14.6-5.9s-5.3-9.2-5.3-16v-46.2
			h-11.8v-19.3h11.8v-20.1h28.6v20.1H530v19.3h-16.9v39c0,2.4,0.5,4.1,1.5,5.1c1.2,1.1,2.9,1.6,4.5,1.5H530v22.3h-25.5L504.5,397.9z
			"/>
		<path id="Shape_00000158009237892367546890000005351234288342187910_" d="M568.5,399.7c-8.4,0-15.1-2.2-20.2-6.4
			c-5.1-4.2-7.7-10.1-7.7-17.5c0-12.1,5.8-20.7,17.4-26c8.7-4,21.4-6.1,37.9-6.5v-3.6c0-7.8-4.9-11.7-14.7-11.8
			c-9.9,0-14.8,3.5-14.8,10.4h-25.2c-0.1-9.3,3.5-16.6,10.7-21.8s17-7.8,29.1-7.8s21.8,2.5,29,7.6s10.8,12.9,10.8,23.5v57.9h-25
			v-9.4C588.7,395.7,578.8,399.9,568.5,399.7L568.5,399.7z M580.3,379.3c6-0.2,11.6-2.9,15.5-7.5v-12.3c-5.7-0.6-11.6,0.2-16.9,2.4
			c-5.6,2.4-8.3,5.7-8.3,10c-0.1,2.3,0.9,4.4,2.8,5.7c2.1,1.4,4.5,2,7,1.8L580.3,379.3z"/>
		<polygon id="Path_00000174581753431944708310000015881509852433854340_" points="632.5,280.1 661.3,280.1 661.3,397.8 
			632.5,397.8 		"/>
		
			<linearGradient id="Path_00000000935576074851790120000018284141871851997098_" gradientUnits="userSpaceOnUse" x1="230.3309" y1="117.2852" x2="231.3309" y2="117.2852" gradientTransform="matrix(51.65 0 0 -153.19 -11886.9932 18318.457)">
			<stop  offset="0" style="stop-color:#FFDE00"/>
			<stop  offset="1" style="stop-color:#FF9900"/>
		</linearGradient>
		
			<polygon id="Path_00000034065850801019763980000004607705640016486787_" style="fill:url(#Path_00000000935576074851790120000018284141871851997098_);" points="
			9.6,274.9 25.5,355 9.6,428.1 61.2,428.1 61.2,274.9 		"/>
		
			<linearGradient id="Path_00000035519489868623928110000005576533342002095019_" gradientUnits="userSpaceOnUse" x1="233.3246" y1="117.0617" x2="234.1364" y2="117.8432" gradientTransform="matrix(125.09 0 0 -153.19 -29148.3301 18295.0352)">
			<stop  offset="0" style="stop-color:#FFDE00"/>
			<stop  offset="1" style="stop-color:#FF9900"/>
		</linearGradient>
		
			<path id="Path_00000156552562878147036840000001847388662152142524_" style="fill:url(#Path_00000035519489868623928110000005576533342002095019_);" d="
			M113,251.5H39.7v153.2h51.7V355H113c28.6,0,51.7-23.2,51.7-51.8l0,0C164.8,274.7,141.6,251.5,113,251.5z"/>
		<polygon id="Path_00000096754800444070515540000016210525401926418367_" class="st2" points="61.2,428.1 39.7,404.7 61.2,404.7 		
			"/>
	</g>
</g>
</svg>
